<svg width="20" height="21" viewBox="0 0 20 21" fill="none" xmlns="http://www.w3.org/2000/svg">
<path d="M1.81818 0C0.823636 0 0 0.864818 0 1.90909V19.0909C0 20.1352 0.823636 21 1.81818 21H18.1818C19.1764 21 20 20.1352 20 19.0909V1.90909C20 0.864818 19.1764 0 18.1818 0H1.81818ZM1.81818 1.90909H18.1818V19.0909H13.4655V12.6477H15.8236L16.1645 9.78409H13.4664V7.93418C13.4664 7.09991 13.6609 6.53291 14.8009 6.53291H16.2782V3.9375C16.0264 3.90409 15.1527 3.84777 14.1482 3.84777C12.0527 3.84777 10.6255 5.17173 10.6255 7.63636V9.78409H8.23909V12.6477H10.6245V19.0909H1.81818V1.90909Z" fill="white"/>
</svg>
