<svg width="21" height="21" viewBox="0 0 21 21" fill="none" xmlns="http://www.w3.org/2000/svg">
<path d="M9.266 4.55431L11.3491 2.47122C11.805 2.0153 12.3473 1.65462 12.9449 1.40978C13.5425 1.16495 14.1837 1.04074 14.832 1.04427C15.4803 1.0478 16.123 1.17898 16.7233 1.43033C17.3236 1.68168 17.8698 2.04828 18.3307 2.50919C18.7916 2.9701 19.1582 3.5163 19.4095 4.1166C19.6609 4.7169 19.7921 5.35955 19.7956 6.00785C19.7991 6.65615 19.6749 7.29741 19.4301 7.89501C19.1853 8.49262 18.8246 9.03486 18.3687 9.49079L16.2856 11.5739M12.1194 15.7401L10.0363 17.8231C9.58038 18.2791 9.03813 18.6397 8.44053 18.8846C7.84293 19.1294 7.20167 19.2536 6.55337 19.2501C5.24406 19.243 3.98556 18.716 3.0547 17.7852C2.12385 16.8543 1.5969 15.5958 1.58978 14.2865C1.58266 12.9772 2.09595 11.7244 3.01674 10.8036L5.09982 8.72049M7.91631 12.9238L13.4712 7.3689" stroke="#FFAA5B" stroke-width="1.8" stroke-linecap="round" stroke-linejoin="round"/>
</svg>
