<svg width="22" height="17" viewBox="0 0 22 17" fill="none" xmlns="http://www.w3.org/2000/svg">
<path d="M22 2.01663C21.1762 2.36328 20.3024 2.59034 19.4077 2.6902C20.3496 2.15403 21.0546 1.3108 21.3913 0.317436C20.5054 0.816507 19.5368 1.16891 18.5268 1.35961C17.908 0.730776 17.1045 0.29347 16.2207 0.104549C15.337 -0.0843713 14.4139 -0.0161654 13.5715 0.300298C12.7291 0.616761 12.0063 1.16684 11.4972 1.87901C10.9881 2.59118 10.7161 3.43249 10.7168 4.29354C10.7168 4.63076 10.7562 4.95753 10.8359 5.27036C9.04064 5.18636 7.28412 4.7437 5.68085 3.97123C4.07757 3.19876 2.66351 2.11382 1.53083 0.787109C1.1284 1.44195 0.917311 2.18712 0.919416 2.94552C0.919416 4.43296 1.71417 5.747 2.92783 6.51643C2.21096 6.49481 1.50999 6.31014 0.883667 5.97792V6.03281C0.883046 7.02372 1.24339 7.98427 1.90347 8.7512C2.56354 9.51814 3.48262 10.0441 4.5045 10.2398C3.83998 10.4131 3.14244 10.4387 2.46583 10.3148C2.75404 11.1672 3.31516 11.9129 4.07081 12.4475C4.82646 12.9821 5.7389 13.2789 6.68067 13.2966C5.74442 13.9952 4.67245 14.5114 3.52609 14.8157C2.37974 15.1199 1.18152 15.2063 0 15.0699C2.06298 16.3319 4.46485 17.002 6.91808 17C15.2212 17 19.7624 10.4612 19.7624 4.79023C19.7624 4.60724 19.7551 4.41902 19.7477 4.23516C20.6301 3.62785 21.3926 2.87709 22 2.0175V2.01663Z" fill="white"/>
</svg>
