<svg width="56" height="88" viewBox="0 0 56 88" fill="none" xmlns="http://www.w3.org/2000/svg">
<path d="M55.2072 12.2003C53.9047 8.39612 50.9822 5.49686 47.1747 4.2232C44.0352 3.1674 40.7788 3.25119 37.8564 4.39078C35.3681 1.6256 31.7944 0 28.0036 0C24.2128 0 20.6558 1.6256 18.1509 4.40754C14.644 3.03333 10.6528 3.21767 6.97888 4.97734C4.59084 6.13369 2.65369 8.06094 1.51812 10.4407C-0.469131 14.5633 -0.50253 18.9541 1.40122 22.8086C2.97098 25.9592 5.75981 28.3557 9.04962 29.4786V42.2655C9.04962 42.3493 9.08302 42.4163 9.09972 42.4833C8.84923 43.8408 8.69893 45.215 8.69893 46.5892C8.69893 58.0689 17.366 67.4203 28.0036 67.4203C38.6413 67.4203 47.3083 58.0857 47.3083 46.5892C47.3083 45.1982 47.158 43.824 46.9075 42.4833C46.9242 42.3995 46.9576 42.3325 46.9576 42.2655V29.4786C50.0137 28.4395 52.6188 26.3112 54.2553 23.4622C56.1925 20.0602 56.5265 16.0716 55.2072 12.2003ZM28.0036 63.2306C19.6538 63.2306 12.8738 55.773 12.8738 46.5892C12.8738 45.282 13.0074 43.9749 13.2913 42.718C13.308 42.6007 13.2913 42.5001 13.2913 42.3828C14.31 41.3102 19.7206 39.5673 28.0036 39.5673C36.2866 39.5673 41.6973 41.3102 42.7159 42.3828C42.7159 42.5001 42.6992 42.6007 42.7159 42.718C42.9831 43.9749 43.1334 45.282 43.1334 46.5892C43.1334 55.773 36.3534 63.2306 28.0036 63.2306ZM50.6315 21.3841C49.329 23.6801 47.1079 25.2889 44.5362 25.8252C44.5028 25.8252 44.4694 25.8587 44.436 25.8755C43.5008 26.0766 42.7827 26.881 42.7827 27.8865V37.6568C37.6059 35.495 29.3229 35.4112 28.0036 35.4112C26.6844 35.4112 18.4014 35.495 13.2245 37.6568V27.9033C13.2245 27.8362 13.1911 27.7692 13.1744 27.6854C13.1577 27.5346 13.141 27.4005 13.0909 27.2664C13.0575 27.1324 13.0074 27.015 12.9406 26.9145C12.8738 26.7972 12.807 26.6966 12.7235 26.5793C12.64 26.4788 12.5398 26.3782 12.4396 26.2944C12.3394 26.2106 12.2392 26.1436 12.1223 26.0766C12.0054 26.0095 11.8718 25.9592 11.7383 25.909C11.6715 25.8922 11.6214 25.8419 11.5379 25.8252C8.78243 25.2889 6.39439 23.4622 5.14192 20.9316C3.82266 18.267 3.87276 15.2002 5.27552 12.2674C6.0103 10.7423 7.24607 9.50219 8.78243 8.76481C11.1538 7.62521 13.5919 7.39059 15.8296 8.04418C15.0949 9.7033 14.6941 11.4965 14.6941 13.3567C14.6941 14.513 15.6293 15.4515 16.7815 15.4515C17.9338 15.4515 18.869 14.513 18.869 13.3567C18.869 11.5132 19.4034 9.75357 20.422 8.22853C22.1254 5.69796 24.9476 4.18968 27.9869 4.18968C30.9929 4.18968 33.8151 5.6812 35.5184 8.17825C36.5538 9.7033 37.1049 11.4965 37.1049 13.3567C37.1049 14.513 38.0401 15.4515 39.1923 15.4515C40.3446 15.4515 41.2798 14.513 41.2798 13.3567C41.2798 11.5132 40.879 9.72005 40.1609 8.04418C41.9645 7.52466 43.935 7.57494 45.8555 8.21177C48.4105 9.06646 50.3811 11.0272 51.2494 13.5746C52.1846 16.2727 51.9508 19.0379 50.6315 21.3841Z" fill="#192A26"/>
<path d="M35.5518 76.5203C35.2345 77.6431 35.8858 78.7827 37.0047 79.1011C42.4488 80.6262 46.8741 83.4752 49.4626 87.095C49.8634 87.6648 50.5146 87.9665 51.1659 87.9665C51.5834 87.9665 52.0176 87.8324 52.385 87.581C53.3202 86.9107 53.5373 85.6035 52.8693 84.665C50.4979 81.33 46.9242 78.5816 42.5657 76.6544C42.5824 76.3695 42.5991 76.1013 42.5991 75.7997C42.5991 69.2135 38.8249 68.2247 36.5872 68.2247H19.4368C17.1823 68.2247 13.4249 69.2135 13.4249 75.7997C13.4249 76.1013 13.4416 76.3695 13.4583 76.6544C9.09972 78.5816 5.52601 81.33 3.15467 84.665C2.48669 85.6035 2.70379 86.9107 3.63896 87.581C4.00635 87.8492 4.42384 87.9832 4.84133 87.9832C5.49261 87.9832 6.1272 87.6816 6.54469 87.1118C9.13312 83.4752 13.5585 80.6429 19.0026 79.1179C20.1047 78.7995 20.756 77.6431 20.4554 76.537C20.1381 75.431 18.9859 74.7774 17.8837 75.079C17.8002 75.0958 17.7167 75.1293 17.6332 75.1628C17.7668 72.4647 18.7187 72.4312 19.4534 72.4312H28.9221L16.9819 84.4136C16.1636 85.2348 16.1636 86.5588 16.9819 87.3799C17.3827 87.7821 17.9171 88 18.4515 88C18.9859 88 19.5203 87.7989 19.921 87.3799L34.8171 72.4312H36.5872C37.3053 72.4312 38.2572 72.4647 38.4075 75.1628C38.324 75.1461 38.2405 75.1126 38.157 75.079C37.0214 74.7606 35.8691 75.4142 35.5518 76.5203Z" fill="#192A26"/>
<path d="M24.6804 51.9185L18.034 54.3485C16.9485 54.7507 16.3974 55.9406 16.7815 57.0299C17.0988 57.8846 17.8837 58.4041 18.7354 58.4041C18.9692 58.4041 19.2197 58.3706 19.4534 58.2701L26.0999 55.84C27.1854 55.4378 27.7364 54.248 27.3523 53.1586C26.9516 52.0861 25.7492 51.533 24.6804 51.9185Z" fill="#FFAA5B"/>
<path d="M37.9733 54.3653L31.3268 51.9353C30.2414 51.533 29.039 52.1028 28.6549 53.1922C28.2541 54.2815 28.8219 55.4881 29.9074 55.8736L36.5538 58.3036C36.7876 58.3874 37.0381 58.4376 37.2719 58.4376C38.1236 58.4376 38.9251 57.9181 39.2257 57.0634C39.6098 55.9573 39.0587 54.7507 37.9733 54.3653Z" fill="#FFAA5B"/>
<path d="M29.9408 85.4024L30.5587 84.7823C31.3769 83.9612 31.3769 82.6372 30.5587 81.816C29.7404 80.9949 28.4211 80.9949 27.6028 81.816L26.985 82.4361C26.1667 83.2573 26.1667 84.5812 26.985 85.4024C27.3857 85.8046 27.9201 86.0225 28.4545 86.0225C29.0056 86.0057 29.54 85.8046 29.9408 85.4024Z" fill="#FFAA5B"/>
</svg>
