<svg width="37" height="35" viewBox="0 0 37 35" fill="none" xmlns="http://www.w3.org/2000/svg">
<path d="M16.264 31.9035C16.264 32.7355 15.5895 33.41 14.7575 33.41C13.9255 33.41 13.251 32.7355 13.251 31.9035C13.251 31.0715 13.9255 30.397 14.7575 30.397C15.5895 30.397 16.264 31.0715 16.264 31.9035Z" fill="#122320"/>
<path d="M31.513 31.9035C31.513 32.7355 30.8385 33.41 30.0065 33.41C29.1745 33.41 28.5 32.7355 28.5 31.9035C28.5 31.0715 29.1745 30.397 30.0065 30.397C30.8385 30.397 31.513 31.0715 31.513 31.9035Z" fill="#122320"/>
<path d="M16.264 31.9035C16.264 32.7355 15.5895 33.41 14.7575 33.41C13.9255 33.41 13.251 32.7355 13.251 31.9035C13.251 31.0715 13.9255 30.397 14.7575 30.397C15.5895 30.397 16.264 31.0715 16.264 31.9035Z" stroke="#122320" stroke-width="2" stroke-linecap="round" stroke-linejoin="round"/>
<path d="M31.513 31.9035C31.513 32.7355 30.8385 33.41 30.0065 33.41C29.1745 33.41 28.5 32.7355 28.5 31.9035C28.5 31.0715 29.1745 30.397 30.0065 30.397C30.8385 30.397 31.513 31.0715 31.513 31.9035Z" stroke="#122320" stroke-width="2" stroke-linecap="round" stroke-linejoin="round"/>
<path d="M1.85742 1.77344H7.88339L11.9208 21.9454C12.0585 22.6389 12.4359 23.262 12.9867 23.7054C13.5375 24.1488 14.2268 24.3844 14.9338 24.3708H29.5769C30.2839 24.3844 30.9731 24.1488 31.5239 23.7054C32.0748 23.262 32.4521 22.6389 32.5898 21.9454L35.0002 9.3059H9.38988" stroke="#122320" stroke-width="3" stroke-linecap="round" stroke-linejoin="round"/>
</svg>
