<svg width="25" height="39" viewBox="0 0 25 39" fill="none" xmlns="http://www.w3.org/2000/svg">
<path d="M24.8467 24.7672C24.7115 24.5956 24.5125 24.4893 24.2897 24.4893H22.4915L22.8416 23.8271C23.4065 22.7725 23.3827 21.5216 22.7859 20.4915C22.1892 19.4615 21.1389 18.8401 19.9692 18.8401H19.5555C19.6748 18.0798 19.5396 17.2868 19.1338 16.5919C18.537 15.5618 17.4867 14.9405 16.317 14.9405H8.6865C7.51685 14.9405 6.46655 15.5618 5.86979 16.5919C5.464 17.2868 5.32873 18.0798 5.44808 18.8401H5.03434C3.86469 18.8401 2.81439 19.4615 2.21763 20.4915C1.62087 21.5216 1.597 22.7725 2.16193 23.8271L2.51203 24.4893H0.705849C0.491016 24.4893 0.28413 24.5956 0.148865 24.7672C0.0215564 24.9471 -0.034144 25.176 0.0215535 25.3886L3.02128 38.4364C3.09289 38.7634 3.37933 39.0005 3.71351 39.0005H21.29C21.6242 39.0005 21.9027 38.7634 21.9823 38.4364L24.982 25.3886C25.0297 25.176 24.982 24.9471 24.8467 24.7672ZM7.08718 17.3359C7.42932 16.7472 8.02609 16.4039 8.6865 16.4039H16.317C16.8502 16.4039 17.3435 16.6328 17.6936 17.0252C17.6936 17.0252 18.2346 17.4013 18.171 18.4886C18.1551 18.603 18.1312 18.7257 18.0994 18.8401H6.90416C6.75298 18.3414 6.81665 17.8019 7.08718 17.3359ZM3.43502 21.2355C3.77716 20.6551 4.37393 20.3035 5.03434 20.3035H19.9692C20.6296 20.3035 21.2264 20.6551 21.5606 21.2355C21.9027 21.8241 21.9107 22.5272 21.6003 23.124L20.8683 24.4893H4.13522L3.68964 23.6636C3.16449 22.985 3.1804 22.2084 3.1804 22.2084C3.1804 21.8732 3.26793 21.538 3.43502 21.2355ZM20.7331 37.5371H4.27047L1.60497 25.9527H23.3986L20.7331 37.5371Z" fill="white"/>
<path d="M13.3412 6.38911C13.7232 2.4486 15.7044 1.63107 15.8078 1.59019C16.2216 1.44304 16.4364 0.985218 16.3012 0.560101C16.1659 0.126809 15.7123 -0.1021 15.2906 0.0450559C15.1713 0.0859325 12.2432 1.14873 11.7578 6.24195V6.34006C9.99936 6.67525 8.66264 8.26126 8.66264 10.1579C8.66264 12.308 10.3574 14.0494 12.45 14.0494C14.5427 14.0494 16.2375 12.308 16.2375 10.1579C16.2375 8.32666 15.0042 6.79788 13.3412 6.38911ZM12.45 12.4143C11.2406 12.4143 10.254 11.4088 10.254 10.1579C10.254 8.91529 11.2406 7.90972 12.45 7.90972C13.6595 7.90972 14.6461 8.91529 14.6461 10.1579C14.6461 11.4088 13.6595 12.4143 12.45 12.4143Z" fill="#FFAA5B"/>
<path d="M9.22757 36.6869C8.86156 36.6869 8.55919 36.4007 8.51941 36.0328L7.69192 27.6041C7.65214 27.179 7.97835 26.8029 8.40006 26.8029C8.76607 26.8029 9.06844 27.089 9.10823 27.4569L9.93574 35.8857C9.97552 36.3108 9.64928 36.6869 9.22757 36.6869Z" fill="#FFAA5B"/>
<path d="M17.3037 27.6041L16.4762 36.0328C16.4364 36.4007 16.1341 36.6869 15.768 36.6869C15.3463 36.6869 15.0201 36.3108 15.0599 35.8857L15.8874 27.4569C15.9272 27.089 16.2295 26.8029 16.5956 26.8029C17.0173 26.8029 17.3435 27.179 17.3037 27.6041Z" fill="#FFAA5B"/>
</svg>
