<svg width="39" height="40" viewBox="0 0 39 40" fill="none" xmlns="http://www.w3.org/2000/svg">
<path d="M38.9691 18.5224C38.5371 16.5186 37.7887 14.6062 36.7472 12.831C33.1905 6.7662 26.5864 2.99477 19.4961 2.99477C12.4059 2.99477 5.79407 6.7662 2.24511 12.831C1.20356 14.6062 0.455192 16.5186 0.0231445 18.5224C0.0154293 18.5605 0.0231445 18.5986 0.0231445 18.6367C0.0231445 18.6672 0.00771678 18.6976 0.00771678 18.7281C0.00771678 18.7586 0.0231445 18.7814 0.0231445 18.8043C0.0308596 18.8729 0.0462922 18.9414 0.0617225 19.01C0.0771527 19.0633 0.1003 19.1167 0.123445 19.1624C0.154305 19.2233 0.192881 19.2691 0.231456 19.3224C0.270032 19.3681 0.308605 19.4062 0.354895 19.4443C0.401186 19.4824 0.455196 19.5205 0.509202 19.5433C0.563208 19.5738 0.624925 19.5967 0.686646 19.6195C0.717507 19.6272 0.740653 19.65 0.771513 19.6576C0.802374 19.6652 0.840947 19.6576 0.871808 19.6576C0.910384 19.6652 0.941248 19.6805 0.972108 19.6805H38.0356C38.105 19.6805 38.1668 19.6729 38.2362 19.6576C38.2671 19.65 38.2902 19.6272 38.3211 19.6195C38.3828 19.5967 38.4445 19.5738 38.4985 19.5433C38.5525 19.5129 38.6065 19.4824 38.6528 19.4443C38.6991 19.4062 38.7377 19.3605 38.7763 19.3224C38.8148 19.2767 38.8534 19.2233 38.8843 19.17C38.9074 19.1167 38.9306 19.071 38.946 19.01C38.9691 18.9491 38.9769 18.8805 38.9846 18.8119C38.9846 18.7814 39 18.7586 39 18.7281C39 18.6976 38.9846 18.6672 38.9846 18.6367C38.9691 18.591 38.9768 18.5605 38.9691 18.5224ZM2.20653 17.7681C2.60772 16.3814 3.17863 15.0405 3.91157 13.7833C7.12107 8.30525 13.0926 4.89954 19.4961 4.89954C25.8997 4.89954 31.8712 8.30525 35.0807 13.7833C35.8214 15.0405 36.3846 16.3738 36.7857 17.7681H2.20653Z" fill="white"/>
<path d="M38.0279 20.7548H0.964392C0.432047 20.7548 0 21.1814 0 21.7072C0 22.2329 0.432047 22.6595 0.964392 22.6595H38.0279C38.5602 22.6595 38.9923 22.2329 38.9923 21.7072C38.9923 21.1814 38.5602 20.7548 38.0279 20.7548Z" fill="white"/>
<path d="M35.0344 27.2233L29.1555 30.1795L23.0914 30.3853L22.6825 30.2176L26.4166 29.8824C27.8979 29.8595 29.086 28.6633 29.086 27.1929C29.086 25.7072 27.8671 24.5033 26.3626 24.5033C26.3317 24.5033 26.3086 24.5033 26.2777 24.5033L18.2309 25.1967C17.8065 25.2043 17.3822 25.311 17.0041 25.5091L12.7917 27.7033C12.4368 27.8862 12.2362 28.2748 12.2825 28.671L13.3086 36.2138C13.3703 36.6405 13.7098 36.9757 14.1418 37.0291L17.6599 37.4633C17.7757 37.4786 17.8837 37.4862 17.9994 37.4862C18.146 37.4862 18.2926 37.471 18.4392 37.4481L30.1199 35.5662C30.1662 35.5586 30.1816 35.5586 30.2279 35.5433C30.2973 35.5281 30.3745 35.5053 30.4439 35.49C30.5596 35.4595 30.6677 35.4138 30.7679 35.3757C30.8142 35.3605 30.876 35.3376 30.9145 35.3148L37.4724 32.0157C38.8071 31.3453 39.3472 29.7224 38.6605 28.4043C38.0125 27.0786 36.3768 26.5529 35.0344 27.2233ZM36.6237 30.3167L30.1122 33.5853C30.0813 33.5929 30.0504 33.6081 30.0273 33.6157C29.9964 33.631 29.9579 33.6386 29.8576 33.6691C29.8421 33.6691 29.8113 33.6767 29.7881 33.6843L18.146 35.5662C18.0688 35.5814 17.9994 35.5814 17.9222 35.5738L15.1371 35.231L14.3038 29.0748L17.9222 27.1853C18.0611 27.1091 18.2231 27.1014 18.3774 27.0938L26.4166 26.4005C26.8409 26.4157 27.1727 26.7586 27.1727 27.1853C27.1727 27.6195 26.8178 27.97 26.378 27.97C26.3472 27.97 26.3163 27.97 26.2932 27.9776L18.6475 28.671C18.2077 28.7091 17.8451 29.0443 17.7834 29.4786C17.7139 29.9129 17.9531 30.3319 18.362 30.4995L22.5513 32.2214C22.6825 32.2748 22.8214 32.2976 22.9525 32.2976L29.4409 32.0767C29.5798 32.0691 29.7187 32.0386 29.8421 31.9776L35.9062 28.93C36.2997 28.7319 36.778 28.8843 36.9709 29.2729C37.1715 29.6462 37.0172 30.1186 36.6237 30.3167Z" fill="white"/>
<path d="M13.9027 7.81001C10.4154 9.09001 7.46053 11.551 5.59347 14.7433C5.32344 15.2005 5.48546 15.7795 5.94836 16.0462C6.10267 16.13 6.26468 16.1757 6.43442 16.1757C6.76617 16.1757 7.0902 16.0081 7.26765 15.7033C8.91097 12.8919 11.511 10.7281 14.5816 9.60049C15.0831 9.41763 15.3377 8.86906 15.1525 8.37382C14.9596 7.87858 14.4042 7.62716 13.9027 7.81001Z" fill="#FFAA5B"/>
<path d="M19.4961 6.82716C18.7015 6.82716 17.9068 6.88811 17.1276 7.00239C16.603 7.07858 16.2326 7.5662 16.3175 8.0843C16.3869 8.55668 16.8036 8.89954 17.2665 8.89954C17.3128 8.89954 17.359 8.89954 17.4053 8.89192C18.092 8.79287 18.7941 8.73954 19.4884 8.73954C20.0208 8.73954 20.4528 8.31287 20.4528 7.78716C20.4528 7.26144 20.0285 6.82716 19.4961 6.82716Z" fill="#FFAA5B"/>
<path d="M17.2896 1.90525H21.6949C22.2273 1.90525 22.6593 1.47858 22.6593 0.952869C22.6593 0.427155 22.2273 0.000488281 21.6949 0.000488281H17.2896C16.7573 0.000488281 16.3252 0.427155 16.3252 0.952869C16.3252 1.47858 16.7573 1.90525 17.2896 1.90525Z" fill="#FFAA5B"/>
<path d="M12.5294 38.5757C12.6837 38.3776 12.7531 38.1186 12.7223 37.8748L11.511 28.8233C11.4415 28.3053 10.9555 27.9319 10.4309 28.0005L2.3994 29.0519C2.14481 29.0824 1.91335 29.2195 1.75905 29.4176C1.60474 29.6157 1.53531 29.8748 1.56617 30.1186L2.77744 39.17C2.83917 39.65 3.25578 40.0005 3.73412 40.0005C3.77269 40.0005 3.81899 40.0005 3.86528 39.9929L11.8967 38.9414C12.1436 38.911 12.3751 38.7814 12.5294 38.5757ZM4.55964 37.9814L3.60296 30.8119L9.72878 30.0119L10.6855 37.1814L4.55964 37.9814Z" fill="#FFAA5B"/>
</svg>
