<svg width="30" height="36" viewBox="0 0 30 36" fill="none" xmlns="http://www.w3.org/2000/svg">
<path d="M13.7271 23.2663V33.4977H9.33809C8.63544 33.4977 8.06517 34.0583 8.06517 34.7491C8.06517 35.4399 8.63544 36.0005 9.33809 36.0005H20.6619C21.3646 36.0005 21.9348 35.4399 21.9348 34.7491C21.9348 34.0583 21.3646 33.4977 20.6619 33.4977H16.2729V23.2663C23.9511 22.6256 30 16.2886 30 8.58002C30 5.72685 29.165 2.95377 27.5967 0.571122C27.5764 0.531078 27.5356 0.511056 27.5051 0.481022C27.4542 0.410944 27.3931 0.350878 27.3218 0.300822C27.2607 0.250766 27.1894 0.210722 27.1181 0.170677C27.0468 0.130633 26.9756 0.1006 26.9043 0.0805773C26.8228 0.0505439 26.7312 0.0405328 26.6497 0.0305217C26.609 0.0205105 26.5682 0.000488281 26.5275 0.000488281H3.32994C2.68839 0.000488281 2.17923 0.481022 2.08758 1.08169C0.723014 3.35421 0 5.92707 0 8.58002C0 16.2886 6.04888 22.6256 13.7271 23.2663ZM4.19552 2.50327H25.8045C26.8839 4.34532 27.4542 6.43764 27.4542 8.58002C27.4542 15.3275 21.8635 20.8236 15 20.8236C8.13646 20.8236 2.54582 15.3275 2.54582 8.58002C2.54582 6.43764 3.11609 4.34532 4.19552 2.50327Z" fill="white"/>
<path d="M15.2749 18.0205C20.8913 18.0205 25.4582 13.6136 25.4582 8.19403C25.4582 7.35015 25.3514 6.51565 25.1279 5.70928C25.0113 5.29672 24.6323 5.00605 24.1853 5.00605H6.35485C5.90787 5.00605 5.52891 5.29672 5.41231 5.70928C5.19854 6.50628 5.09165 7.34078 5.09165 8.18465C5.09165 13.6042 9.65859 18.0205 15.2749 18.0205ZM15.2069 16.0046C10.9412 16.0046 7.47229 12.6572 7.47229 8.54096C7.47229 8.02526 7.90955 7.60332 8.44398 7.60332C8.97841 7.60332 9.41567 8.02526 9.41567 8.54096C9.41567 11.6164 12.0101 14.1293 15.2069 14.1293C15.7414 14.1293 16.1786 14.5512 16.1786 15.0669C16.1786 15.5826 15.7414 16.0046 15.2069 16.0046Z" fill="#FFAA5B"/>
</svg>
