<svg width="54" height="30" viewBox="0 0 54 30" fill="none" xmlns="http://www.w3.org/2000/svg">
<path d="M47.3496 0.641264C46.2967 0.641264 45.4451 1.47041 45.4451 2.49553L45.4373 29.0507C45.4373 29.5708 45.8709 29.9929 46.4051 29.9929C46.9393 29.9929 47.3728 29.5708 47.3728 29.0507V21.8598C49.0296 20.9101 54 17.7141 54 13.5684C54 9.20406 50.9883 0.641264 47.3496 0.641264ZM47.3728 19.6362L47.3496 2.52568C48.9677 2.52568 52.0568 9.12868 52.0568 13.5684C52.0645 15.9955 49.3625 18.3246 47.3728 19.6362Z" fill="#FFAA5B"/>
<path d="M8.56264 7.53823V1.58347C8.56264 1.06337 8.12909 0.641264 7.59489 0.641264C7.0607 0.641264 6.62714 1.06337 6.62714 1.58347V7.53069C6.62714 8.78948 5.57423 9.81461 4.28132 9.81461C2.98841 9.81461 1.9355 8.78948 1.9355 7.53069V1.58347C1.9355 1.06337 1.50195 0.641264 0.967749 0.641264C0.433552 0.641264 0 1.06337 0 1.58347V7.53069C0 9.50556 1.41678 11.1563 3.31357 11.586V29.0583C3.31357 29.5784 3.74712 30.0005 4.28132 30.0005C4.81552 30.0005 5.24907 29.5784 5.24907 29.0583V11.586C7.14586 11.1639 8.56264 9.50556 8.56264 7.53823Z" fill="white"/>
<path d="M4.28078 8.48044C4.81498 8.48044 5.24853 8.05833 5.24853 7.53823V1.58347C5.24853 1.06337 4.81498 0.641264 4.28078 0.641264C3.74658 0.641264 3.31303 1.06337 3.31303 1.58347V7.53069C3.31303 8.05833 3.74658 8.48044 4.28078 8.48044Z" fill="white"/>
<path d="M27.0035 27.2869C34.73 27.2869 41.0165 21.1663 41.0165 13.6437C41.0165 6.12108 34.73 0.000488281 27.0035 0.000488281C19.277 0.000488281 12.9905 6.12108 12.9905 13.6437C12.9905 21.1663 19.277 27.2869 27.0035 27.2869ZM27.0035 1.88491C33.6616 1.88491 39.081 7.16127 39.081 13.6437C39.081 20.1261 33.6616 25.4024 27.0035 25.4024C20.3454 25.4024 14.926 20.1261 14.926 13.6437C14.926 7.16127 20.3454 1.88491 27.0035 1.88491Z" fill="white"/>
<path d="M27.0036 24.3699C33.0811 24.3699 38.0205 19.5608 38.0205 13.6438C38.0205 7.72669 33.0811 2.91765 27.0036 2.91765C20.9261 2.91765 15.9868 7.72669 15.9868 13.6438C15.9868 19.5608 20.9261 24.3699 27.0036 24.3699ZM27.0036 4.80207C32.0127 4.80207 36.085 8.76689 36.085 13.6438C36.085 18.5206 32.0127 22.4854 27.0036 22.4854C21.9945 22.4854 17.9223 18.5206 17.9223 13.6438C17.9223 8.76689 21.9945 4.80207 27.0036 4.80207Z" fill="#FFAA5B"/>
</svg>
