<svg width="34" height="30" viewBox="0 0 34 30" fill="none" xmlns="http://www.w3.org/2000/svg">
<path d="M33.45 0.75H31.95C32 12.98 32.02 26.51 31.97 27.29C31.81 27.52 30.66 27.83 29.16 27.79C28.28 27.79 27.55 27.51 27 26.95C26.11 26.04 25.82 24.6 25.84 23.63V18.02C28.03 16.75 30.34 14.22 30.66 10.64C30.77 9.46 30.84 8.36 30.66 6.92C30.36 4.64 28.02 0.39 23.69 0.32V0.31H23.59V0.32C19.26 0.39 16.92 4.64 16.62 6.92C16.44 8.36 16.51 9.46 16.62 10.64C16.95 14.22 19.25 16.75 21.44 18.02V28.75H22.94V17.11L22.54 16.9C20.59 15.91 18.4 13.7 18.12 10.5C18.01 9.37 17.95 8.4 18.11 7.11C18.29 5.71 19.94 1.85 23.64 1.81C27.34 1.85 28.99 5.71 29.17 7.12C29.33 8.4 29.27 9.37 29.17 10.5C28.88 13.7 26.69 15.91 24.75 16.9L24.34 17.11V23.62C24.31 24.92 24.71 26.76 25.93 27.99C26.77 28.86 27.86 29.29 29.14 29.29C29.23 29.29 29.34 29.3 29.47 29.3C30.68 29.3 33.31 29.1 33.45 27.46C33.55 26.23 33.46 3.35 33.45 0.75ZM0 0V10.15C0 14.33 3 16.94 4.93 17.94V24.68C4.93 26.4 2.73 27.79 1.28 27.79V29.29C3.33 29.29 6.43 27.45 6.43 24.68V16.97L5.97 16.78C4.43 16.12 1.5 13.89 1.5 10.15V1.5H13.08V10.15C13.08 13.89 10.15 16.12 8.6 16.78L8.15 16.97V28.75H9.65V17.94C11.58 16.94 14.58 14.33 14.58 10.15V0H0Z" fill="white"/>
<path d="M13.1895 17.9902H11.6895V28.7502H13.1895V17.9902Z" fill="#FFAA5B"/>
<path d="M20.0508 17.9902H18.5508V28.7502H20.0508V17.9902Z" fill="#FFAA5B"/>
<path d="M16.6211 17.9902H15.1211V28.7502H16.6211V17.9902Z" fill="#FFAA5B"/>
</svg>
