<svg width="118" height="43" viewBox="0 0 118 43" fill="none" xmlns="http://www.w3.org/2000/svg">
<rect width="118" height="43" rx="8" fill="#1877F2"/>
<path d="M21.8853 14.6623C20.8492 14.6623 20.5497 15.1208 20.5497 16.1322V17.8099H23.3132L23.0362 20.5204H20.5507V28.7461H17.2342V20.5204H15V17.8099H17.2342V16.1783C17.2342 13.4442 18.339 12 21.4215 12C22.0674 11.9985 22.7128 12.0368 23.354 12.1147V14.6655L21.8853 14.6623Z" fill="white"/>
<path d="M23.543 22.933C23.543 19.8776 24.9935 17.5763 28.0329 17.5763C29.6906 17.5763 30.7031 18.427 31.1873 19.4833V17.8099H34.3642V28.7461H31.1873V27.0919C30.7267 28.1494 29.6906 28.9764 28.0329 28.9764C24.9935 28.9764 23.543 26.6784 23.543 23.6197V22.933ZM26.8584 23.669C26.8584 25.2996 27.4564 26.3795 28.9992 26.3795C30.3584 26.3795 31.0488 25.3917 31.0488 23.8297V22.7316C31.0488 21.1696 30.3584 20.1818 28.9992 20.1818C27.4564 20.1818 26.8584 21.2617 26.8584 22.8923V23.669Z" fill="white"/>
<path d="M41.272 17.5796C42.5604 17.5796 43.7811 17.856 44.4489 18.3145L43.7124 20.6586C43.0216 20.3303 42.2669 20.1576 41.5018 20.1529C39.7056 20.1529 38.925 21.1867 38.925 22.9566V23.5994C38.925 25.3692 39.7077 26.4031 41.5018 26.4031C42.2669 26.3983 43.0216 26.2257 43.7124 25.8974L44.4489 28.2404C43.7811 28.7 42.5615 28.9764 41.272 28.9764C37.3801 28.9764 35.6075 26.8852 35.6075 23.5308V23.0252C35.6075 19.6708 37.3801 17.5796 41.272 17.5796Z" fill="white"/>
<path d="M44.8859 23.6958V22.7316C44.8859 19.6301 46.6585 17.5892 50.2745 17.5892C53.6822 17.5892 55.1789 19.6569 55.1789 22.6898V24.4361H48.2002C48.27 25.9295 48.9378 26.5959 50.777 26.5959C52.0213 26.5959 53.3333 26.3431 54.3007 25.9295L54.9073 28.1954C54.0323 28.6561 52.2361 29 50.6481 29C46.4513 28.9989 44.8859 26.9098 44.8859 23.6958ZM48.2013 22.2709H52.2081V21.9956C52.2081 20.8011 51.725 19.8529 50.2756 19.8529C48.7779 19.854 48.2013 20.7968 48.2013 22.2667V22.2709Z" fill="white"/>
<path d="M67.4689 23.623C67.4689 26.6784 65.9958 28.9796 62.9596 28.9796C61.3019 28.9796 60.1509 28.1526 59.6903 27.0952V28.7493H56.5596V12.3182L59.875 12.0183V19.3248C60.3582 18.3606 61.4178 17.5785 62.9607 17.5785C66.0001 17.5785 67.47 19.8765 67.47 22.9352L67.4689 23.623ZM64.1535 22.8645C64.1535 21.3249 63.5555 20.1765 61.9665 20.1765C60.6072 20.1765 59.8707 21.1407 59.8707 22.7038V23.8522C59.8707 25.4142 60.6072 26.3795 61.9665 26.3795C63.5555 26.3795 64.1535 25.231 64.1535 23.6915V22.8645Z" fill="white"/>
<path d="M68.578 23.5533V23.0027C68.578 19.854 70.3742 17.5796 74.0353 17.5796C77.6964 17.5796 79.4937 19.854 79.4937 23.0027V23.5533C79.4937 26.7009 77.6975 28.9764 74.0364 28.9764C70.3752 28.9764 68.578 26.7009 68.578 23.5533ZM76.1772 22.7723C76.1772 21.3249 75.5781 20.1765 74.0299 20.1765C72.4817 20.1765 71.888 21.3249 71.888 22.7723V23.7837C71.888 25.231 72.4871 26.3795 74.0299 26.3795C75.5727 26.3795 76.1772 25.231 76.1772 23.7837V22.7723Z" fill="white"/>
<path d="M80.5963 23.5533V23.0027C80.5963 19.854 82.3925 17.5796 86.0536 17.5796C89.7148 17.5796 91.511 19.854 91.511 23.0027V23.5533C91.511 26.7009 89.7148 28.9764 86.0536 28.9764C82.3925 28.9764 80.5963 26.7009 80.5963 23.5533ZM88.1956 22.7723C88.1956 21.3249 87.5965 20.1765 86.0536 20.1765C84.5108 20.1765 83.9128 21.3249 83.9128 22.7723V23.7837C83.9128 25.231 84.5108 26.3795 86.0536 26.3795C87.5965 26.3795 88.1956 25.231 88.1956 23.7837V22.7723Z" fill="white"/>
<path d="M96.0696 23.0252L99.3389 17.8099H102.861L99.4312 23.2094L103 28.7461H99.4774L96.0696 23.3894V28.7461H92.7532V12.3182L96.0696 12.0183V23.0252Z" fill="white"/>
</svg>
