<svg width="103" height="43" viewBox="0 0 103 43" fill="none" xmlns="http://www.w3.org/2000/svg">
<rect width="103" height="43" rx="8" fill="white"/>
<path d="M46.4559 22.1038C46.4559 25.4128 43.8624 27.8512 40.6796 27.8512C37.4969 27.8512 34.9034 25.4128 34.9034 22.1038C34.9034 18.7714 37.4969 16.3564 40.6796 16.3564C43.8624 16.3564 46.4559 18.7714 46.4559 22.1038ZM43.9273 22.1038C43.9273 20.0359 42.4242 18.6211 40.6796 18.6211C38.9351 18.6211 37.432 20.0359 37.432 22.1038C37.432 24.1509 38.9351 25.5864 40.6796 25.5864C42.4242 25.5864 43.9273 24.1483 43.9273 22.1038Z" fill="#EA4335"/>
<path d="M58.9169 22.1038C58.9169 25.4128 56.3235 27.8512 53.1407 27.8512C49.9579 27.8512 47.3645 25.4128 47.3645 22.1038C47.3645 18.774 49.9579 16.3564 53.1407 16.3564C56.3235 16.3564 58.9169 18.7714 58.9169 22.1038ZM56.3884 22.1038C56.3884 20.0359 54.8853 18.6211 53.1407 18.6211C51.3962 18.6211 49.893 20.0359 49.893 22.1038C49.893 24.1509 51.3962 25.5864 53.1407 25.5864C54.8853 25.5864 56.3884 24.1483 56.3884 22.1038Z" fill="#FBBC05"/>
<path d="M70.8588 16.7036V27.022C70.8588 31.2664 68.351 33 65.3863 33C62.5955 33 60.9159 31.1369 60.2825 29.6132L62.4839 28.6985C62.8759 29.634 63.8365 30.7378 65.3837 30.7378C67.2814 30.7378 68.4574 29.5692 68.4574 27.3692V26.5426H68.3692C67.8032 27.2396 66.7129 27.8486 65.337 27.8486C62.4579 27.8486 59.8204 25.3454 59.8204 22.1245C59.8204 18.8802 62.4579 16.3564 65.337 16.3564C66.7103 16.3564 67.8006 16.9653 68.3692 17.6416H68.4574V16.7062H70.8588V16.7036ZM68.6366 22.1245C68.6366 20.1007 67.284 18.6211 65.5628 18.6211C63.8183 18.6211 62.3567 20.1007 62.3567 22.1245C62.3567 24.1275 63.8183 25.5864 65.5628 25.5864C67.284 25.5864 68.6366 24.1275 68.6366 22.1245Z" fill="#4285F4"/>
<path d="M74.8178 10.6556V27.4988H72.3515V10.6556H74.8178Z" fill="#34A853"/>
<path d="M84.4283 23.9954L86.391 25.3014C85.7575 26.2368 84.2311 27.8486 81.5935 27.8486C78.3224 27.8486 75.8795 25.3247 75.8795 22.1012C75.8795 18.6833 78.3432 16.3538 81.3105 16.3538C84.2985 16.3538 85.7601 18.7274 86.2378 20.01L86.5 20.663L78.8027 23.8451C79.392 24.9982 80.3084 25.5864 81.5935 25.5864C82.8811 25.5864 83.7741 24.9541 84.4283 23.9954ZM78.3873 21.9276L83.5327 19.795C83.2497 19.0772 82.3982 18.5771 81.3962 18.5771C80.1111 18.5771 78.3224 19.7094 78.3873 21.9276Z" fill="#EA4335"/>
<path d="M25.568 20.6086V18.1702H33.8001C33.8806 18.5952 33.9221 19.0979 33.9221 19.6421C33.9221 21.4715 33.4211 23.7337 31.8063 25.3454C30.2357 26.9779 28.229 27.8486 25.5706 27.8486C20.6433 27.8486 16.5 23.8425 16.5 18.9243C16.5 14.0061 20.6433 10 25.5706 10C28.2965 10 30.2383 11.0676 31.6973 12.4591L29.9735 14.1797C28.9273 13.2002 27.5099 12.4384 25.568 12.4384C21.9699 12.4384 19.1558 15.3328 19.1558 18.9243C19.1558 22.5158 21.9699 25.4102 25.568 25.4102C27.9019 25.4102 29.231 24.4748 30.0826 23.6248C30.7731 22.9356 31.2274 21.9509 31.4065 20.606L25.568 20.6086Z" fill="#4285F4"/>
</svg>
