<svg width="57" height="37" viewBox="0 0 57 37" fill="none" xmlns="http://www.w3.org/2000/svg">
<path d="M28.8267 33.6625C33.3951 30.347 36.3798 24.8684 36.3798 18.6712C36.3798 12.4739 33.3951 6.99536 28.8267 3.67982C24.2584 6.99536 21.2737 12.4739 21.2737 18.6712C21.2737 24.8684 24.2584 30.347 28.8267 33.6625Z" fill="#FF5F00"/>
<path d="M36.3798 18.6712C36.3798 28.7896 28.4228 36.9922 18.6077 36.9922C8.79264 36.9922 0.835937 28.7896 0.835937 18.6711C0.835937 8.55262 8.79264 0.349979 18.6077 0.349979C28.4228 0.349978 36.3798 8.55271 36.3798 18.6712Z" fill="#EB001B"/>
<path d="M56.8173 18.6711C56.8173 28.7895 48.8606 36.9922 39.0455 36.9922C29.2304 36.9922 21.2737 28.7896 21.2737 18.6712C21.2737 8.55271 29.2304 0.349978 39.0455 0.349978C48.8606 0.349977 56.8173 8.55262 56.8173 18.6711Z" fill="#F79E1B"/>
</svg>
