<svg width="82" height="27" viewBox="0 0 82 27" fill="none" xmlns="http://www.w3.org/2000/svg">
<path d="M35.842 26.4854H29.3283L33.4024 0.867687H39.9158L35.842 26.4854Z" fill="#00579F"/>
<path d="M59.4548 1.49397C58.17 0.975629 56.1322 0.40332 53.6125 0.40332C47.18 0.40332 42.6503 3.8915 42.6225 8.87855C42.5691 12.558 45.8656 14.6016 48.3312 15.8285C50.8513 17.0821 51.7079 17.9004 51.7079 19.0178C51.6823 20.734 49.6716 21.5251 47.7962 21.5251C45.1956 21.5251 43.8022 21.1173 41.6846 20.1624L40.8269 19.7531L39.9154 25.5037C41.4431 26.2115 44.2578 26.8396 47.18 26.8671C54.0146 26.8671 58.4642 23.4329 58.5169 18.1184C58.5429 15.2022 56.8022 12.9677 53.0493 11.1417C50.7711 9.96956 49.3759 9.1792 49.3759 7.97988C49.4026 6.8896 50.556 5.77287 53.1277 5.77287C55.2453 5.71818 56.8011 6.23579 57.9798 6.75377L58.5689 7.02579L59.4548 1.49397Z" fill="#00579F"/>
<path d="M68.1121 17.4099C68.6485 15.9382 70.7126 10.2423 70.7126 10.2423C70.6856 10.297 71.248 8.74344 71.5696 7.78972L72.0249 9.99709C72.0249 9.99709 73.2584 16.1291 73.5262 17.4099C72.5082 17.4099 69.3986 17.4099 68.1121 17.4099ZM76.1524 0.867687H71.1141C69.5604 0.867687 68.3799 1.3306 67.7096 2.9932L58.0343 26.485H64.8689C64.8689 26.485 65.9941 23.3232 66.236 22.6422C66.9858 22.6422 73.6345 22.6422 74.5991 22.6422C74.7861 23.5416 75.3763 26.485 75.3763 26.485H81.4073L76.1524 0.867687Z" fill="#00579F"/>
<path d="M23.8878 0.867687L17.5087 18.3365L16.8116 14.7936C15.6323 10.7056 11.9336 6.26405 7.80598 4.05559L13.649 26.4582H20.5371L30.7755 0.867687H23.8878Z" fill="#00579F"/>
<path d="M11.5852 0.867687H1.10526L0.998047 1.3853C9.17305 3.51117 14.5872 8.6355 16.8116 14.7947L14.5334 3.02109C14.1583 1.38494 13.0057 0.921658 11.5852 0.867687Z" fill="#FAA61A"/>
</svg>
