<svg width="142" height="32" viewBox="0 0 142 32" fill="none" xmlns="http://www.w3.org/2000/svg">
<path d="M57.072 7.2H50.52V24H52.92V18.912H57.072C61.44 18.912 64.08 16.704 64.08 13.056C64.08 9.408 61.44 7.2 57.072 7.2ZM57 16.824H52.92V9.288H57C60.072 9.288 61.68 10.656 61.68 13.056C61.68 15.456 60.072 16.824 57 16.824ZM69.3043 24H71.6083V6.192H69.3043V24ZM82.4394 11.16C80.3994 11.16 78.5034 11.736 77.1834 12.792L78.1434 14.52C79.1274 13.68 80.6634 13.152 82.1754 13.152C84.4554 13.152 85.5834 14.28 85.5834 16.224V16.68H81.9354C78.1434 16.68 76.8234 18.36 76.8234 20.4C76.8234 22.608 78.6474 24.144 81.5274 24.144C83.5194 24.144 84.9354 23.472 85.7034 22.32V24H87.8874V16.32C87.8874 12.84 85.9194 11.16 82.4394 11.16ZM81.9114 22.368C80.1594 22.368 79.1034 21.576 79.1034 20.304C79.1034 19.224 79.7514 18.336 82.0314 18.336H85.5834V20.112C85.0074 21.576 83.6394 22.368 81.9114 22.368ZM99.5655 24.144C101.846 24.144 103.742 23.184 104.75 21.408L102.998 20.304C102.182 21.552 100.934 22.128 99.5415 22.128C97.0455 22.128 95.1735 20.4 95.1735 17.64C95.1735 14.928 97.0455 13.176 99.5415 13.176C100.934 13.176 102.182 13.752 102.998 15L104.75 13.872C103.742 12.096 101.846 11.16 99.5655 11.16C95.6535 11.16 92.8455 13.848 92.8455 17.64C92.8455 21.432 95.6535 24.144 99.5655 24.144ZM120.841 17.712C120.841 13.8 118.225 11.16 114.553 11.16C110.881 11.16 108.169 13.872 108.169 17.64C108.169 21.432 110.905 24.144 115.009 24.144C117.121 24.144 118.873 23.424 120.025 22.08L118.753 20.592C117.817 21.624 116.569 22.128 115.081 22.128C112.561 22.128 110.761 20.64 110.473 18.408H120.793C120.817 18.192 120.841 17.904 120.841 17.712ZM114.553 13.104C116.785 13.104 118.393 14.616 118.633 16.752H110.473C110.713 14.592 112.345 13.104 114.553 13.104ZM140.024 24L136.04 18.36C138.392 17.52 139.736 15.648 139.736 13.056C139.736 9.408 137.096 7.2 132.728 7.2H126.176V24H128.576V18.888H132.728C133.088 18.888 133.448 18.864 133.784 18.84L137.408 24H140.024ZM132.656 16.848H128.576V9.288H132.656C135.728 9.288 137.336 10.656 137.336 13.056C137.336 15.456 135.728 16.848 132.656 16.848Z" fill="white"/>
<g clip-path="url(#clip0_742_1313)">
<path d="M40.45 1.75H38.95C39 13.98 39.02 27.51 38.97 28.29C38.81 28.52 37.66 28.83 36.16 28.79C35.28 28.79 34.55 28.51 34 27.95C33.11 27.04 32.82 25.6 32.84 24.63V19.02C35.03 17.75 37.34 15.22 37.66 11.64C37.77 10.46 37.84 9.36 37.66 7.92C37.36 5.64 35.02 1.39 30.69 1.32V1.31H30.59V1.32C26.26 1.39 23.92 5.64 23.62 7.92C23.44 9.36 23.51 10.46 23.62 11.64C23.95 15.22 26.25 17.75 28.44 19.02V29.75H29.94V18.11L29.54 17.9C27.59 16.91 25.4 14.7 25.12 11.5C25.01 10.37 24.95 9.4 25.11 8.11C25.29 6.71 26.94 2.85 30.64 2.81C34.34 2.85 35.99 6.71 36.17 8.12C36.33 9.4 36.27 10.37 36.17 11.5C35.88 14.7 33.69 16.91 31.75 17.9L31.34 18.11V24.62C31.31 25.92 31.71 27.76 32.93 28.99C33.77 29.86 34.86 30.29 36.14 30.29C36.23 30.29 36.34 30.3 36.47 30.3C37.68 30.3 40.31 30.1 40.45 28.46C40.55 27.23 40.46 4.35 40.45 1.75ZM7 1V11.15C7 15.33 10 17.94 11.93 18.94V25.68C11.93 27.4 9.73 28.79 8.28 28.79V30.29C10.33 30.29 13.43 28.45 13.43 25.68V17.97L12.97 17.78C11.43 17.12 8.5 14.89 8.5 11.15V2.5H20.08V11.15C20.08 14.89 17.15 17.12 15.6 17.78L15.15 17.97V29.75H16.65V18.94C18.58 17.94 21.58 15.33 21.58 11.15V1H7Z" fill="white"/>
<path d="M20.1895 18.9902H18.6895V29.7502H20.1895V18.9902Z" fill="#FFAA5B"/>
<path d="M27.0498 18.9902H25.5498V29.7502H27.0498V18.9902Z" fill="#FFAA5B"/>
<path d="M23.6201 18.9902H22.1201V29.7502H23.6201V18.9902Z" fill="#FFAA5B"/>
</g>
<defs>
<clipPath id="clip0_742_1313">
<rect width="33.5" height="29.3" fill="white" transform="translate(7 1)"/>
</clipPath>
</defs>
</svg>
